<svg width="240" height="240" viewBox="0 0 240 240" fill="none" xmlns="http://www.w3.org/2000/svg">
<rect width="240" height="240" rx="16" fill="#FFF1EC"/>
<path d="M120 71C115.055 71 110.222 72.4662 106.111 75.2133C102 77.9603 98.7952 81.8648 96.903 86.4329C95.0108 91.0011 94.5157 96.0277 95.4804 100.877C96.445 105.727 98.826 110.181 102.322 113.678C105.819 117.174 110.273 119.555 115.123 120.52C119.972 121.484 124.999 120.989 129.567 119.097C134.135 117.205 138.04 114 140.787 109.889C143.534 105.778 145 100.945 145 96C145 92.717 144.353 89.4661 143.097 86.4329C141.841 83.3998 139.999 80.6438 137.678 78.3223C135.356 76.0009 132.6 74.1594 129.567 72.903C126.534 71.6466 123.283 71 120 71ZM120 116C116.044 116 112.178 114.827 108.889 112.629C105.6 110.432 103.036 107.308 101.522 103.654C100.009 99.9991 99.6126 95.9778 100.384 92.0982C101.156 88.2186 103.061 84.6549 105.858 81.8579C108.655 79.0608 112.219 77.156 116.098 76.3843C119.978 75.6126 123.999 76.0087 127.654 77.5224C131.308 79.0362 134.432 81.5996 136.629 84.8886C138.827 88.1776 140 92.0444 140 96C140 101.304 137.893 106.391 134.142 110.142C130.391 113.893 125.304 116 120 116ZM130 93.5H122.5V86C122.5 85.337 122.237 84.7011 121.768 84.2322C121.299 83.7634 120.663 83.5 120 83.5C119.337 83.5 118.701 83.7634 118.232 84.2322C117.763 84.7011 117.5 85.337 117.5 86V93.5H110C109.337 93.5 108.701 93.7634 108.232 94.2322C107.763 94.7011 107.5 95.337 107.5 96C107.5 96.663 107.763 97.2989 108.232 97.7678C108.701 98.2366 109.337 98.5 110 98.5H117.5V106C117.5 106.663 117.763 107.299 118.232 107.768C118.701 108.237 119.337 108.5 120 108.5C120.663 108.5 121.299 108.237 121.768 107.768C122.237 107.299 122.5 106.663 122.5 106V98.5H130C130.663 98.5 131.299 98.2366 131.768 97.7678C132.237 97.2989 132.5 96.663 132.5 96C132.5 95.337 132.237 94.7011 131.768 94.2322C131.299 93.7634 130.663 93.5 130 93.5Z" fill="#FF7037"/>
<rect x="37.5" y="126" width="165" height="48" rx="24" fill="#FFF1EC"/>
<path d="M68.2088 156.192C64.8008 156.192 62.5928 153.824 62.5928 150.16C62.5928 146.528 64.8808 144.112 68.3048 144.112C71.0728 144.112 73.1368 145.728 73.5368 148.24H71.3767C70.9768 146.88 69.8088 146.08 68.2568 146.08C66.0968 146.08 64.7368 147.648 64.7368 150.144C64.7368 152.624 66.1128 154.224 68.2568 154.224C69.8408 154.224 71.0568 153.392 71.4408 152.096H73.5688C73.1208 154.56 70.9768 156.192 68.2088 156.192ZM80.0774 148.064V149.872H79.3574C77.9494 149.872 77.0694 150.624 77.0694 152.16V156H75.1174V148.112H76.9574L77.0694 149.264C77.4054 148.48 78.1574 147.952 79.2134 147.952C79.4854 147.952 79.7574 147.984 80.0774 148.064ZM84.669 156.208C82.317 156.208 80.669 154.496 80.669 152.048C80.669 149.568 82.285 147.856 84.605 147.856C86.973 147.856 88.477 149.44 88.477 151.904V152.496L82.525 152.512C82.669 153.904 83.405 154.608 84.701 154.608C85.773 154.608 86.477 154.192 86.701 153.44H88.509C88.173 155.168 86.733 156.208 84.669 156.208ZM84.621 149.456C83.469 149.456 82.765 150.08 82.573 151.264H86.541C86.541 150.176 85.789 149.456 84.621 149.456ZM92.3131 156.208C90.6331 156.208 89.6091 155.232 89.6091 153.744C89.6091 152.288 90.6651 151.376 92.5371 151.232L94.9051 151.056V150.88C94.9051 149.808 94.2651 149.376 93.2731 149.376C92.1211 149.376 91.4811 149.856 91.4811 150.688H89.8171C89.8171 148.976 91.2251 147.856 93.3691 147.856C95.4971 147.856 96.8091 149.008 96.8091 151.2V156H95.0971L94.9531 154.832C94.6171 155.648 93.5451 156.208 92.3131 156.208ZM92.9531 154.736C94.1531 154.736 94.9211 154.016 94.9211 152.8V152.384L93.2731 152.512C92.0571 152.624 91.5931 153.024 91.5931 153.664C91.5931 154.384 92.0731 154.736 92.9531 154.736ZM101.305 156H99.3534V149.728H97.8334V148.096H99.3534V145.632H101.305V148.096H102.841V149.728H101.305V156ZM107.513 156.208C105.161 156.208 103.513 154.496 103.513 152.048C103.513 149.568 105.129 147.856 107.449 147.856C109.817 147.856 111.321 149.44 111.321 151.904V152.496L105.369 152.512C105.513 153.904 106.249 154.608 107.545 154.608C108.617 154.608 109.321 154.192 109.545 153.44H111.353C111.017 155.168 109.577 156.208 107.513 156.208ZM107.465 149.456C106.313 149.456 105.609 150.08 105.417 151.264H109.385C109.385 150.176 108.633 149.456 107.465 149.456ZM119.5 156H117.484V144.304H119.516L125.003 152.592V144.304H127.02V156H125.003L119.5 147.712V156ZM132.857 156.208C130.505 156.208 128.857 154.496 128.857 152.048C128.857 149.568 130.473 147.856 132.793 147.856C135.161 147.856 136.665 149.44 136.665 151.904V152.496L130.713 152.512C130.857 153.904 131.593 154.608 132.889 154.608C133.961 154.608 134.665 154.192 134.889 153.44H136.697C136.361 155.168 134.921 156.208 132.857 156.208ZM132.809 149.456C131.657 149.456 130.953 150.08 130.761 151.264H134.729C134.729 150.176 133.977 149.456 132.809 149.456ZM139.627 156L137.067 148.096H139.099L140.139 151.488C140.315 152.112 140.475 152.8 140.619 153.536C140.763 152.768 140.907 152.272 141.163 151.488L142.251 148.096H144.235L145.291 151.488C145.387 151.808 145.707 152.992 145.803 153.52C145.931 152.928 146.187 151.984 146.331 151.488L147.387 148.096H149.451L146.715 156H144.891L143.803 152.576C143.483 151.536 143.307 150.784 143.243 150.384C143.163 150.752 143.019 151.312 142.619 152.608L141.531 156H139.627ZM159.858 151.968H157.282V156H155.234V144.304H159.858C162.21 144.304 163.73 145.84 163.73 148.128C163.73 150.384 162.194 151.968 159.858 151.968ZM159.458 146.128H157.282V150.144H159.426C160.834 150.144 161.586 149.392 161.586 148.112C161.586 146.832 160.818 146.128 159.458 146.128ZM168.31 156.208C165.958 156.208 164.31 154.496 164.31 152.048C164.31 149.568 165.926 147.856 168.246 147.856C170.614 147.856 172.118 149.44 172.118 151.904V152.496L166.166 152.512C166.31 153.904 167.046 154.608 168.342 154.608C169.414 154.608 170.118 154.192 170.342 153.44H172.15C171.814 155.168 170.374 156.208 168.31 156.208ZM168.262 149.456C167.11 149.456 166.406 150.08 166.214 151.264H170.182C170.182 150.176 169.43 149.456 168.262 149.456ZM176.29 156H174.338V149.728H172.818V148.096H174.338V145.632H176.29V148.096H177.826V149.728H176.29V156Z" fill="#FF7037"/>
</svg>
