<svg width="240" height="240" viewBox="0 0 240 240" fill="none" xmlns="http://www.w3.org/2000/svg">
<rect width="240" height="240" rx="120" fill="#DCDFED"/>
<rect x="180" y="180" width="60" height="60" rx="30" fill="#FFF1EC"/>
<path d="M217.875 208.875H211.125V202.125C211.125 201.827 211.006 201.54 210.795 201.33C210.585 201.119 210.298 201 210 201C209.702 201 209.415 201.119 209.205 201.33C208.994 201.54 208.875 201.827 208.875 202.125V208.875H202.125C201.827 208.875 201.54 208.994 201.33 209.205C201.119 209.415 201 209.702 201 210C201 210.298 201.119 210.585 201.33 210.795C201.54 211.006 201.827 211.125 202.125 211.125H208.875V217.875C208.875 218.173 208.994 218.46 209.205 218.67C209.415 218.881 209.702 219 210 219C210.298 219 210.585 218.881 210.795 218.67C211.006 218.46 211.125 218.173 211.125 217.875V211.125H217.875C218.173 211.125 218.46 211.006 218.67 210.795C218.881 210.585 219 210.298 219 210C219 209.702 218.881 209.415 218.67 209.205C218.46 208.994 218.173 208.875 217.875 208.875Z" fill="#FF7037"/>
<path d="M136.077 123.076C140.325 119.734 143.426 115.15 144.948 109.963C146.47 104.777 146.338 99.2442 144.569 94.1361C142.8 89.028 139.484 84.5981 135.08 81.4628C130.677 78.3274 125.406 76.6426 120 76.6426C114.594 76.6426 109.323 78.3274 104.92 81.4628C100.516 84.5981 97.1995 89.028 95.4309 94.1361C93.6623 99.2442 93.5299 104.777 95.052 109.963C96.574 115.15 99.675 119.734 103.923 123.076C96.6437 125.993 90.2919 130.83 85.5452 137.073C80.7985 143.315 77.8348 150.729 76.97 158.523C76.9074 159.092 76.9575 159.668 77.1174 160.218C77.2774 160.767 77.544 161.28 77.9021 161.727C78.6254 162.629 79.6774 163.207 80.8267 163.333C81.9759 163.459 83.1283 163.124 84.0304 162.401C84.9324 161.678 85.5102 160.626 85.6367 159.476C86.5882 151.006 90.6273 143.182 96.9823 137.501C103.337 131.82 111.563 128.68 120.087 128.68C128.611 128.68 136.836 131.82 143.191 137.501C149.546 143.182 153.585 151.006 154.537 159.476C154.654 160.541 155.163 161.525 155.963 162.237C156.763 162.949 157.799 163.34 158.87 163.333H159.347C160.483 163.202 161.521 162.628 162.235 161.735C162.949 160.842 163.282 159.703 163.16 158.566C162.291 150.75 159.311 143.317 154.54 137.065C149.769 130.813 143.387 125.977 136.077 123.076ZM120 120C116.572 120 113.221 118.983 110.37 117.079C107.52 115.174 105.298 112.467 103.986 109.3C102.674 106.132 102.331 102.647 103 99.2848C103.669 95.9225 105.319 92.834 107.743 90.4099C110.168 87.9858 113.256 86.3349 116.618 85.6661C119.981 84.9973 123.466 85.3406 126.633 86.6525C129.8 87.9644 132.508 90.1861 134.412 93.0365C136.317 95.887 137.333 99.2382 137.333 102.666C137.333 107.263 135.507 111.672 132.257 114.923C129.006 118.174 124.597 120 120 120Z" fill="white"/>
</svg>
