<svg width="14" height="18" viewBox="0 0 14 18" fill="none" xmlns="http://www.w3.org/2000/svg">
<path d="M0.333984 8.99984C0.333984 9.22085 0.421782 9.43281 0.578062 9.58909C0.734343 9.74537 0.946304 9.83317 1.16732 9.83317H7.49232L5.57565 11.7415C5.49754 11.819 5.43555 11.9111 5.39324 12.0127C5.35093 12.1142 5.32915 12.2232 5.32915 12.3332C5.32915 12.4432 5.35093 12.5521 5.39324 12.6537C5.43555 12.7552 5.49754 12.8474 5.57565 12.9248C5.65312 13.0029 5.74529 13.0649 5.84684 13.1072C5.94839 13.1496 6.05731 13.1713 6.16732 13.1713C6.27733 13.1713 6.38625 13.1496 6.4878 13.1072C6.58935 13.0649 6.68152 13.0029 6.75898 12.9248L10.0923 9.5915C10.1682 9.51225 10.2277 9.4188 10.2673 9.3165C10.3507 9.11362 10.3507 8.88605 10.2673 8.68317C10.2277 8.58088 10.1682 8.48742 10.0923 8.40817L6.75898 5.07484C6.68129 4.99714 6.58904 4.9355 6.48753 4.89345C6.38601 4.8514 6.2772 4.82976 6.16732 4.82976C6.05744 4.82976 5.94863 4.8514 5.84711 4.89345C5.74559 4.9355 5.65335 4.99714 5.57565 5.07484C5.49795 5.15254 5.43632 5.24478 5.39427 5.3463C5.35222 5.44781 5.33057 5.55662 5.33057 5.6665C5.33057 5.77639 5.35222 5.88519 5.39427 5.98671C5.43632 6.08823 5.49795 6.18047 5.57565 6.25817L7.49232 8.1665H1.16732C0.946304 8.1665 0.734343 8.2543 0.578062 8.41058C0.421782 8.56686 0.333984 8.77882 0.333984 8.99984ZM11.1673 0.666504H2.83398C2.17094 0.666504 1.53506 0.929896 1.06622 1.39874C0.597377 1.86758 0.333984 2.50346 0.333984 3.1665V5.6665C0.333984 5.88752 0.421782 6.09948 0.578062 6.25576C0.734343 6.41204 0.946304 6.49984 1.16732 6.49984C1.38833 6.49984 1.60029 6.41204 1.75657 6.25576C1.91285 6.09948 2.00065 5.88752 2.00065 5.6665V3.1665C2.00065 2.94549 2.08845 2.73353 2.24473 2.57725C2.40101 2.42097 2.61297 2.33317 2.83398 2.33317H11.1673C11.3883 2.33317 11.6003 2.42097 11.7566 2.57725C11.9129 2.73353 12.0007 2.94549 12.0007 3.1665V14.8332C12.0007 15.0542 11.9129 15.2661 11.7566 15.4224C11.6003 15.5787 11.3883 15.6665 11.1673 15.6665H2.83398C2.61297 15.6665 2.40101 15.5787 2.24473 15.4224C2.08845 15.2661 2.00065 15.0542 2.00065 14.8332V12.3332C2.00065 12.1122 1.91285 11.9002 1.75657 11.7439C1.60029 11.5876 1.38833 11.4998 1.16732 11.4998C0.946304 11.4998 0.734343 11.5876 0.578062 11.7439C0.421782 11.9002 0.333984 12.1122 0.333984 12.3332V14.8332C0.333984 15.4962 0.597377 16.1321 1.06622 16.6009C1.53506 17.0698 2.17094 17.3332 2.83398 17.3332H11.1673C11.8304 17.3332 12.4662 17.0698 12.9351 16.6009C13.4039 16.1321 13.6673 15.4962 13.6673 14.8332V3.1665C13.6673 2.50346 13.4039 1.86758 12.9351 1.39874C12.4662 0.929896 11.8304 0.666504 11.1673 0.666504Z" fill="#3A3B46"/>
</svg>
