<?xml version="1.0" encoding="utf-8"?><svg xml:space="preserve" viewBox="0 0 100 100" y="0" x="0" xmlns="http://www.w3.org/2000/svg" id="圖層_1" version="1.1" width="200px" height="200px" xmlns:xlink="http://www.w3.org/1999/xlink" style="width:100%;height:100%;background-size:initial;background-repeat:initial;background-position-y:initial;background-position-x:initial;background-origin:initial;background-color:initial;background-clip:initial;background-attachment:initial;animation-play-state:paused" ><g class="ldl-scale" style="transform-origin:50% 50%;transform:rotate(0deg) scale(0.8, 0.8);animation-play-state:paused" ><circle fill="#333" r="40" cy="50" cx="50" data-darkreader-inline-fill="" style="fill:rgb(241, 242, 243);animation-play-state:paused" ></circle>
<path fill="#e0e0e0" d="M53.858 70.192a14.3 14.3 0 0 0-7.716 0c-1.805.496-3.744.453-5.418-.385-4.103-2.052-5.881-7.237-2.947-11.29l5.351-7.39c3.344-4.618 10.215-4.649 13.599-.06l5.455 7.395c2.987 4.05 1.223 9.273-2.893 11.34-1.677.842-3.622.887-5.431.39z" data-darkreader-inline-fill="" style="fill:rgb(228, 129, 47);animation-play-state:paused" ></path>
<path fill="#e0e0e0" d="M47.935 36.532c.558 4.887-1.325 7.941-5.01 8.361-3.685.421-6.207-2.131-6.765-7.018s2.259-8.047 5.01-8.361c2.751-.314 6.207 2.131 6.765 7.018z" data-darkreader-inline-fill="" style="fill:rgb(228, 129, 47);animation-play-state:paused" ></path>
<path fill="#e0e0e0" d="M35.18 46.342c2.528 3.576 2.366 6.765-.33 8.671-2.696 1.906-5.757.994-8.284-2.582-2.528-3.576-1.682-7.248.33-8.671 2.013-1.422 5.757-.994 8.284 2.582z" data-darkreader-inline-fill="" style="fill:rgb(228, 129, 47);animation-play-state:paused" ></path>
<path fill="#e0e0e0" d="M64.82 46.342c-2.528 3.576-2.366 6.765.33 8.671 2.696 1.906 5.757.994 8.284-2.582 2.528-3.576 1.682-7.248-.33-8.671-2.013-1.422-5.757-.994-8.284 2.582z" data-darkreader-inline-fill="" style="fill:rgb(228, 129, 47);animation-play-state:paused" ></path>
<path fill="#e0e0e0" d="M52.065 36.532c-.558 4.887 1.325 7.941 5.01 8.361 3.685.421 6.207-2.131 6.765-7.018.558-4.887-2.259-8.047-5.01-8.361-2.751-.314-6.207 2.131-6.765 7.018z" data-darkreader-inline-fill="" style="fill:rgb(228, 129, 47);animation-play-state:paused" ></path>
<metadata xmlns:d="https://loading.io/stock/" style="animation-play-state:paused" ><d:name style="animation-play-state:paused" >paw</d:name>


<d:tags style="animation-play-state:paused" >paw,cat,claw,nail,meow,trace,trail,footprint,animal</d:tags>


<d:license style="animation-play-state:paused" >by</d:license>


<d:slug style="animation-play-state:paused" >lx9njb</d:slug></metadata></g><!-- generated by https://loading.io/ --></svg>