<svg width="240" height="240" viewBox="0 0 240 240" fill="none" xmlns="http://www.w3.org/2000/svg">
<rect width="240" height="240" rx="120" fill="#DCDFED"/>
<rect x="180" y="180" width="60" height="60" rx="30" fill="#FFF1EC"/>
<path d="M217.875 208.875H211.125V202.125C211.125 201.827 211.006 201.54 210.795 201.33C210.585 201.119 210.298 201 210 201C209.702 201 209.415 201.119 209.205 201.33C208.994 201.54 208.875 201.827 208.875 202.125V208.875H202.125C201.827 208.875 201.54 208.994 201.33 209.205C201.119 209.415 201 209.702 201 210C201 210.298 201.119 210.585 201.33 210.795C201.54 211.006 201.827 211.125 202.125 211.125H208.875V217.875C208.875 218.173 208.994 218.46 209.205 218.67C209.415 218.881 209.702 219 210 219C210.298 219 210.585 218.881 210.795 218.67C211.006 218.46 211.125 218.173 211.125 217.875V211.125H217.875C218.173 211.125 218.46 211.006 218.67 210.795C218.881 210.585 219 210.298 219 210C219 209.702 218.881 209.415 218.67 209.205C218.46 208.994 218.173 208.875 217.875 208.875Z" fill="#FF7037"/>
<path d="M138.409 121.638C134.368 115.186 127.487 111.334 120 111.334C112.514 111.334 105.632 115.186 101.592 121.638L91.8561 137.185C90.2407 139.765 89.4954 142.744 89.7002 145.801C89.905 148.858 91.0416 151.705 92.9865 154.036C94.9328 156.365 97.5045 157.957 100.424 158.64C103.343 159.322 106.335 159.031 109.077 157.798L109.256 157.716C116.155 154.672 124.041 154.7 130.923 157.798C132.698 158.596 134.579 159 136.476 159C137.508 159 138.546 158.88 139.574 158.641C142.493 157.958 145.065 156.367 147.012 154.037C148.957 151.708 150.095 148.86 150.3 145.803C150.506 142.744 149.76 139.765 148.145 137.184L138.409 121.638ZM143.012 150.535C140.535 153.498 136.529 154.435 133.042 152.866C128.897 151 124.448 150.067 119.998 150.067C115.552 150.067 111.104 150.999 106.962 152.863L106.844 152.916C103.384 154.414 99.4364 153.466 96.9873 150.535C94.5135 147.571 94.232 143.375 96.2872 140.092L106.024 124.545C109.092 119.647 114.316 116.722 120 116.722C125.684 116.722 130.909 119.647 133.978 124.545L143.713 140.092C145.769 143.376 145.487 147.572 143.012 150.535Z" fill="white"/>
<path d="M91.8234 123.643C94.5474 122.499 96.6167 120.099 97.6508 116.884C98.6339 113.826 98.5534 110.372 97.4227 107.16C96.2914 103.95 94.2336 101.33 91.6288 99.7805C88.8914 98.154 85.8846 97.8891 83.1651 99.0352C77.694 101.335 75.1833 108.728 77.569 115.518C79.4748 120.922 83.9196 124.334 88.4133 124.334C89.5607 124.334 90.7114 124.111 91.8234 123.643ZM82.1884 113.573C80.7826 109.572 82.0177 105.316 84.9433 104.086C85.4716 103.863 86.0302 103.753 86.6003 103.753C87.4804 103.753 88.3895 104.016 89.2644 104.536C90.8377 105.471 92.0946 107.094 92.8033 109.105C93.5114 111.118 93.5745 113.242 92.9805 115.089C92.4361 116.781 91.3943 118.025 90.0478 118.59C87.1261 119.822 83.5987 117.571 82.1884 113.573Z" fill="white"/>
<path d="M111.333 107C118.501 107 124.334 100.197 124.334 91.8354C124.334 83.4713 118.501 76.667 111.333 76.667C104.165 76.667 98.3337 83.4713 98.3337 91.8354C98.3337 100.197 104.165 107 111.333 107ZM111.333 81.9787C115.64 81.9787 119.146 86.4006 119.146 91.8354C119.146 97.2681 115.64 101.689 111.333 101.689C107.026 101.689 103.522 97.2681 103.522 91.8354C103.522 86.4006 107.026 81.9787 111.333 81.9787Z" fill="white"/>
<path d="M137.068 110.81C138.251 111.164 139.459 111.334 140.661 111.334C146.269 111.334 151.735 107.649 153.82 101.986C155.021 98.726 154.942 95.2792 153.598 92.2809C152.191 89.1428 149.584 86.8645 146.256 85.8653C142.928 84.8674 139.327 85.2833 136.118 87.0371C133.053 88.7131 130.705 91.4308 129.506 94.6906C126.974 101.567 130.367 108.798 137.068 110.81ZM134.788 96.2751C135.571 94.1466 137.067 92.3928 139.002 91.3347C140.792 90.3558 142.745 90.1066 144.501 90.6331C146.255 91.1601 147.653 92.4143 148.439 94.1655C149.287 96.058 149.323 98.2722 148.539 100.401C146.975 104.649 142.616 107.179 138.824 106.042C135.035 104.904 133.224 100.523 134.788 96.2751Z" fill="white"/>
<path d="M163.803 113.443C159.222 109.529 152.369 111.223 148.528 117.225C144.691 123.23 145.291 131.303 149.865 135.221C151.533 136.65 153.504 137.334 155.521 137.334C159.037 137.334 162.694 135.258 165.139 131.44C168.977 125.435 168.377 117.362 163.803 113.443ZM161.275 128.131C159.007 131.673 155.172 132.848 152.725 130.751C150.28 128.657 150.131 124.072 152.393 120.532C153.897 118.183 156.093 116.876 158.117 116.876C159.141 116.876 160.12 117.21 160.944 117.914C163.387 120.011 163.535 124.594 161.275 128.131Z" fill="white"/>
</svg>
