<svg width="240" height="240" viewBox="0 0 240 240" fill="none" xmlns="http://www.w3.org/2000/svg">
<rect width="240" height="240" rx="120" fill="#DCDFED"/>
<rect x="180" y="180" width="60" height="60" rx="30" fill="#FFF1EC"/>
<path d="M217.875 208.875H211.125V202.125C211.125 201.827 211.006 201.54 210.795 201.33C210.585 201.119 210.298 201 210 201C209.702 201 209.415 201.119 209.205 201.33C208.994 201.54 208.875 201.827 208.875 202.125V208.875H202.125C201.827 208.875 201.54 208.994 201.33 209.205C201.119 209.415 201 209.702 201 210C201 210.298 201.119 210.585 201.33 210.795C201.54 211.006 201.827 211.125 202.125 211.125H208.875V217.875C208.875 218.173 208.994 218.46 209.205 218.67C209.415 218.881 209.702 219 210 219C210.298 219 210.585 218.881 210.795 218.67C211.006 218.46 211.125 218.173 211.125 217.875V211.125H217.875C218.173 211.125 218.46 211.006 218.67 210.795C218.881 210.585 219 210.298 219 210C219 209.702 218.881 209.415 218.67 209.205C218.46 208.994 218.173 208.875 217.875 208.875Z" fill="#FF7037"/>
<path d="M136.078 123.076C140.326 119.734 143.427 115.15 144.949 109.963C146.472 104.777 146.339 99.2442 144.571 94.1361C142.802 89.028 139.485 84.5981 135.082 81.4628C130.678 78.3274 125.407 76.6426 120.001 76.6426C114.596 76.6426 109.325 78.3274 104.921 81.4628C100.518 84.5981 97.2009 89.028 95.4324 94.1361C93.6638 99.2442 93.5313 104.777 95.0534 109.963C96.5755 115.15 99.6764 119.734 103.925 123.076C96.6451 125.993 90.2934 130.83 85.5467 137.073C80.7999 143.315 77.8362 150.729 76.9715 158.523C76.9089 159.092 76.959 159.668 77.1189 160.218C77.2788 160.767 77.5455 161.28 77.9036 161.727C78.6269 162.629 79.6788 163.207 80.8281 163.333C81.9774 163.459 83.1298 163.124 84.0319 162.401C84.9339 161.678 85.5117 160.626 85.6381 159.476C86.5897 151.006 90.6288 143.182 96.9837 137.501C103.339 131.82 111.564 128.68 120.088 128.68C128.612 128.68 136.838 131.82 143.193 137.501C149.547 143.182 153.587 151.006 154.538 159.476C154.656 160.541 155.164 161.525 155.964 162.237C156.764 162.949 157.8 163.34 158.871 163.333H159.348C160.484 163.202 161.522 162.628 162.237 161.735C162.951 160.842 163.283 159.703 163.161 158.566C162.293 150.75 159.313 143.317 154.542 137.065C149.771 130.813 143.388 125.977 136.078 123.076ZM120.001 120C116.573 120 113.222 118.983 110.372 117.079C107.521 115.174 105.299 112.467 103.988 109.3C102.676 106.132 102.332 102.647 103.001 99.2848C103.67 95.9225 105.321 92.834 107.745 90.4099C110.169 87.9858 113.258 86.3349 116.62 85.6661C119.982 84.9973 123.467 85.3406 126.635 86.6525C129.802 87.9644 132.509 90.1861 134.414 93.0365C136.318 95.887 137.335 99.2382 137.335 102.666C137.335 107.263 135.509 111.672 132.258 114.923C129.007 118.174 124.599 120 120.001 120Z" fill="white"/>
</svg>
